<svg xmlns="http://www.w3.org/2000/svg" viewBox="0 0 100 140" style="color:#c9a24b">
  <defs>
    <linearGradient id="pg" x1="0" y1="0" x2="0" y2="1">
      <stop offset="0" stop-color="#f1e6cb"/>
      <stop offset=".55" stop-color="#e8dcc0"/>
      <stop offset="1" stop-color="#d8c69b"/>
    </linearGradient>
    <pattern id="hx" width="2.4" height="2.4" patternUnits="userSpaceOnUse" patternTransform="rotate(40)">
      <rect width="2.4" height="2.4" fill="#7a5c2e"/>
      <path d="M1.2 0V2.4" stroke="#4a3418" stroke-width="0.8"/>
    </pattern>
  </defs>
  <rect width="100" height="140" fill="url(#pg)"/>
  <g fill="#a8843c" opacity=".14">
    <circle cx="15" cy="22" r="1.1"/><circle cx="86" cy="31" r=".9"/><circle cx="30" cy="128" r="1"/>
    <circle cx="72" cy="19" r=".7"/><circle cx="11" cy="62" r=".8"/><circle cx="89" cy="72" r="1"/>
    <circle cx="52" cy="15" r=".6"/><circle cx="38" cy="131" r=".8"/><circle cx="87" cy="104" r=".7"/>
    <circle cx="20" cy="112" r=".6"/><circle cx="63" cy="26" r=".8"/>
  </g>
  <g fill="#7a5c2e" opacity=".07">
    <circle cx="26" cy="40" r="3.2"/><circle cx="79" cy="60" r="2.6"/><circle cx="46" cy="111" r="3"/>
  </g>
  <rect x="3.5" y="3.5" width="93" height="133" fill="none" stroke="#6e4f23" stroke-width="3"/>
  <rect x="8" y="8" width="84" height="124" fill="none" stroke="#a8843c" stroke-width="1.1"/>
  <g transform="translate(0,-9)" stroke-linejoin="round">
    <ellipse cx="46" cy="124" rx="33" ry="3.4" fill="#a8843c" opacity=".25"/>
    <path d="M15.8 56C15.7 59 16.2 60.8 16.6 63C12 67 10.5 75 10.5 86C10.5 96 13.5 103 14.8 104.5Q21 106 27.2 104.5C28.5 103 31.5 96 31.5 86C31.5 75 30 67 25.4 63C25.8 60.8 26.3 59 26.2 56Z" fill="#a8843c" stroke="#4a3418" stroke-width="2.6"/>
    <path d="M20 56L26.2 56C26.3 59 25.8 60.8 25.4 63C30 67 31.5 75 31.5 86C31.5 96 28.5 103 27.2 104.5Q25.6 105.2 24.2 105.5C24.4 99 26.5 93 26.5 86C26.5 75 23.6 67 18.8 63.4C19.4 60.8 19.8 59 20 56Z" fill="url(#hx)"/>
    <path d="M14.5 74C13.4 79 13.4 84 14.5 88.5C15.6 84 15.8 79 14.5 74Z" fill="#c9a24b"/>
    <ellipse cx="21" cy="56" rx="5.2" ry="2" fill="#7a5c2e"/>
    <path d="M15.6 55.8C15.1 51.8 17.8 49.4 21 49.4C24.2 49.4 26.9 51.8 26.4 55.8C24.7 56.7 17.3 56.7 15.6 55.8Z" fill="#a8843c" stroke="#4a3418" stroke-width="2.2"/>
    <path d="M15.9 56.6Q21 58 26.1 56.6" fill="none" stroke="#4a3418" stroke-width="1.3" stroke-linecap="round"/>
    <path d="M62.8 54C62.7 57.5 63.2 59.5 63.8 62C59 66.5 56.5 75 56.5 86C56.5 97 59.5 104.6 61 106Q69 107.8 77 106C78.5 104.6 81.5 97 81.5 86C81.5 75 79 66.5 74.2 62C74.8 59.5 75.3 57.5 75.2 54Z" fill="#a8843c" stroke="#4a3418" stroke-width="2.8"/>
    <path d="M68.4 54L75.2 54C75.3 57.5 74.8 59.5 74.2 62C79 66.5 81.5 75 81.5 86C81.5 97 78.5 104.6 77 106Q74 107 71 107.5C72 100 74 93 74 86C74 75 71 67 67.4 62.3C68.4 59.5 68.5 57.5 68.4 54Z" fill="url(#hx)"/>
    <path d="M74.2 62C79 66.5 81.5 75 81.5 86C81.5 97 78.5 104.6 77 106Q75.4 106.7 73.8 107.1C75.6 101 78 94 78 86C78 75.5 75 68 70.8 63Z" fill="#4a3418"/>
    <path d="M62.5 72C61 78 61 84 62.5 89C64 84 64.5 78 62.5 72Z" fill="#c9a24b"/>
    <ellipse cx="69" cy="54" rx="6.2" ry="2.4" fill="#7a5c2e"/>
    <path d="M62.6 53.8C62 48.6 65.2 45.6 69 45.6C72.8 45.6 76 48.6 75.4 53.8C73.2 55 64.8 55 62.6 53.8Z" fill="#a8843c" stroke="#4a3418" stroke-width="2.4"/>
    <path d="M63 54.8Q69 56.4 75 54.8" fill="none" stroke="#4a3418" stroke-width="1.5" stroke-linecap="round"/>
    <path d="M35.4 47C35.2 50.5 36 53 36.8 56C29 61 25 71 25 88C25 104 30 115 32 117.5Q43 120 54 117.5C56 115 61 104 61 88C61 71 57 61 49.2 56C50 53 50.8 50.5 50.6 47Z" fill="#a8843c" stroke="#4a3418" stroke-width="3.2"/>
    <path d="M42 47L50.6 47C50.8 50.5 50 53 49.2 56C57 61 61 71 61 88C61 104 56 115 54 117.5Q49.5 118.9 44.5 119.7C43.5 111 45 100 45 88C45 74 42.5 62 39 56C40 53 41 50.5 42 47Z" fill="url(#hx)"/>
    <path d="M49.2 56C57 61 61 71 61 88C61 104 56 115 54 117.5Q52.5 118.3 51 118.7C53.5 112 56.5 101 56.5 88C56.5 73 53 62 46.5 56.8Z" fill="#4a3418"/>
    <path d="M34.5 68C31.5 76 31 85 32.8 93C35.5 86 37 76 34.5 68Z" fill="#c9a24b"/>
    <ellipse cx="43" cy="47" rx="7.6" ry="2.9" fill="#7a5c2e"/>
    <path d="M35.2 46.8C34.4 40.4 38.2 36.8 43 36.8C47.8 36.8 51.6 40.4 50.8 46.8C48 48.4 38 48.4 35.2 46.8Z" fill="#a8843c" stroke="#4a3418" stroke-width="2.6"/>
    <path d="M35.6 48.2Q43 50.2 50.4 48.2" fill="none" stroke="#4a3418" stroke-width="1.7" stroke-linecap="round"/>
    <path d="M50.4 48.2C52.2 48.8 52.4 50.4 51.2 51" fill="none" stroke="#4a3418" stroke-width="1.4" stroke-linecap="round"/>
    <path d="M52 117.5C52 122.6 56.4 125.6 63 125.6C69.6 125.6 74 122.6 74 117.5Z" fill="#a8843c"/>
    <path d="M63 117.5L74 117.5C74 122.6 69.6 125.6 63 125.6Z" fill="url(#hx)"/>
    <path d="M52 117.5C52 122.6 56.4 125.6 63 125.6C69.6 125.6 74 122.6 74 117.5" fill="none" stroke="#4a3418" stroke-width="2.6" stroke-linecap="round"/>
    <ellipse cx="63" cy="117.5" rx="11" ry="4.2" fill="#7a5c2e" stroke="#4a3418" stroke-width="2.2"/>
    <ellipse cx="63" cy="118.2" rx="7.4" ry="2.5" fill="#c9a24b"/>
  </g>
  <rect x="76" y="117" width="11" height="11" rx="1.2" fill="#a02a3f"/>
  <g stroke="#f6eed8" stroke-width="1.5" fill="none" stroke-linecap="round">
    <path d="M79 119.8V125.2"/>
    <path d="M84 119.8V125.2"/>
    <path d="M77.6 122.5H85.4"/>
  </g>
</svg>
