<svg viewBox="0 0 24 24" width="26" height="26" xmlns="http://www.w3.org/2000/svg" fill="none" stroke="#e8cf8f" stroke-width="1.5" stroke-linecap="round" stroke-linejoin="round">
<path d="M8.4 3.2 L15.6 3.2 M12 2.6 L12 5.3" stroke-opacity=".5" stroke-width="1.1"/>
<path d="M9 5.3 L12 7.4 L15 5.3 L18.4 8 L17 11.6 L17.9 18.4 Q12 19.8 6.1 18.4 L7 11.6 L5.6 8 Z" fill="#e8cf8f" fill-opacity=".13"/>
<path d="M9 5.3 L12 9.1 L15 5.3" stroke-opacity=".7" stroke-width="1.2"/>
<path d="M10.3 5.4 L12 7.7 L13.7 5.4" stroke-opacity=".4" stroke-width="1"/>
<path d="M6.7 13.1 L17.3 13.1" stroke-opacity=".5" stroke-width="1.2"/>
<path d="M12 13.1 L12 15.4" stroke-opacity=".45" stroke-width="1.2"/>
<path d="M7.9 15.1 L9.3 16.3 M9.3 15.1 L7.9 16.3 M8.6 14.9 L8.6 16.5" stroke-opacity=".45" stroke-width="1"/>
<path d="M14.7 15.1 L16.1 16.3 M16.1 15.1 L14.7 16.3 M15.4 14.9 L15.4 16.5" stroke-opacity=".45" stroke-width="1"/>
</svg>
